<?xml version="1.0" encoding="UTF-8" standalone="no"?>
<!DOCTYPE svg PUBLIC "-//W3C//DTD SVG 1.1//EN" "http://www.w3.org/Graphics/SVG/1.1/DTD/svg11.dtd">
<svg width="100%" height="100%" viewBox="0 0 128 128" version="1.1" xmlns="http://www.w3.org/2000/svg" xmlns:xlink="http://www.w3.org/1999/xlink" xml:space="preserve" xmlns:serif="http://www.serif.com/" style="fill-rule:evenodd;clip-rule:evenodd;stroke-linejoin:round;stroke-miterlimit:2;">
    <g transform="matrix(2.09867,0,0,2.92775,-16.4814,-48.2143)">
        <rect x="7.853" y="16.468" width="60.991" height="43.72" style="fill:rgb(0,0,102);"/>
    </g>
    <g transform="matrix(7.61565,0,0,7.25469,8.28826,87.2519)">
        <text x="0px" y="0px" style="font-family:'Helvetica-Bold', 'Helvetica';font-weight:700;font-size:12px;fill:rgb(156,66,33);">[  ]</text>
    </g>
    <g transform="matrix(0.136729,0,0,0.136729,-8.28703,-5.56388)">
        <path d="M524.898,793.744C522.809,783.244 523.687,773.083 524.303,762.958C524.761,755.434 525.737,747.942 526.513,740.123C524.155,741.133 523.707,743.037 523.049,744.62C518.975,754.425 512.485,762.295 504.072,768.641C499.287,772.251 494.298,775.603 489.648,779.376C485.94,782.384 480.826,781.537 477.065,784.747C475.096,786.428 473.588,783.563 473.159,781.646C472.356,778.062 472.33,774.451 473.053,770.757C475.529,758.112 479.788,746.036 484.253,734.006C485.631,730.295 487.227,726.608 487.211,721.925C483.62,724.906 481.948,729.063 478.485,731.54C475.273,733.838 472.473,736.972 467.841,735.705C466.255,735.27 465.527,736.726 464.629,737.655C456.485,746.081 445.991,749.614 434.892,751.739C433.021,752.097 430.958,751.303 428.982,751.291C425.495,751.27 425.045,749.147 425.843,746.594C430.879,730.479 433.645,713.341 446.222,700.563C451.048,695.659 445.194,692.31 444.876,687.481C437.667,695.198 428.839,696.887 419.894,699.653C412.95,701.799 406.242,700.655 399.674,702.421C399.041,702.592 398.349,702.617 397.687,702.6C393.809,702.503 389.473,702.549 387.457,698.737C385.548,695.128 388.18,691.73 389.901,688.526C390.515,687.382 391.298,686.328 392.184,684.953C389.604,682.748 386.667,683.621 384.006,683.236C380.625,682.747 375.923,683.208 374.972,679.435C373.985,675.522 378.31,673.698 381.332,672.148C408.052,658.443 433.607,642.757 458.698,626.334C474.21,616.181 487.738,603.472 501.438,591.047C506.576,586.387 501.736,581.43 502.29,576.411C496.033,576.44 493.449,581.031 491.41,584.834C489.151,589.047 486.655,589.108 483.392,587.406C480.574,585.937 478.064,584.321 474.66,585.593C473.278,586.109 471.712,585.474 470.365,584.697C468.491,583.615 466.662,582.362 464.375,583.905C463.914,584.216 462.859,584.265 462.455,583.95C455.092,578.208 443.859,582.186 437.457,573.993C436.915,573.3 435.581,572.536 434.9,572.743C425.062,575.734 418.906,569.828 412.754,563.812C412.294,563.362 411.691,563.057 410.87,562.488C407.159,566.625 403.523,564.921 400.055,562.116C397.729,560.235 395.488,558.234 393.34,556.151C390.625,553.517 388.684,551.244 383.691,552.908C377.94,554.825 373.4,550.177 369.836,545.862C367.53,543.069 365.675,541.003 361.324,541.462C356.623,541.959 353.643,537.899 350.916,534.548C348.033,531.004 345.391,528.103 339.99,528.416C334.876,528.712 331.038,525.204 328.062,521.166C326.285,518.755 324.502,516.306 323.091,513.675C321.361,510.45 318.957,509.594 315.633,510.657C315.474,510.708 315.315,510.762 315.152,510.793C306.555,512.442 301.934,509.51 299.903,500.928C296.905,500.258 294.782,502.994 292.042,503.185C289.892,503.334 287.709,503.307 285.56,503.127C274.818,502.229 273.04,498.616 278.968,489.908C279.706,488.824 280.345,487.672 281.752,485.369C278.438,487.048 276.191,488.085 274.043,489.297C269.375,491.93 264.496,492.075 259.557,490.465C254.002,488.654 248.385,487.168 242.611,486.279C234.899,485.092 234.653,484.725 237.371,477.065C224.144,477.554 212.254,473.887 200.555,467.382C203.923,463.789 208.094,463.815 211.376,461.272C190.7,464.513 173.677,452.216 154.383,448.689C162.2,442.531 172.058,441.682 180.5,436.607C156.299,433.493 132.099,430.378 106.53,427.088C125.33,418.344 145.285,420.414 164.391,415.166C160.794,412.603 157.736,411.443 154.102,411.315C140.606,410.843 127.959,406.568 115.582,401.728C106.168,398.046 96.536,394.645 88.354,388.261C86.452,386.777 83.504,386.635 79.85,385.511C83.884,384.238 86.854,384.58 89.71,384.925C97.479,385.863 105.241,386.907 112.966,388.149C119.222,389.155 125.384,389.696 131.8,389.465C138.002,389.243 144.295,391.029 150.513,392.129C152.746,392.524 154.774,392.672 157.686,390.603C141.749,385.94 125.875,384.201 111.145,377.346C96.64,370.595 83.611,361.335 68.441,355.155C70.294,353.104 72.162,353.855 73.783,354.077C80.39,354.983 86.959,356.082 93.162,358.719C108.538,365.256 125.062,366.785 141.276,369.622C144.952,370.266 148.753,370.24 154.001,369.42C145.22,364.372 137.518,360.546 129.586,357.254C109.131,348.765 92.085,335.878 78.512,318.393C78.145,317.92 78.007,317.269 77.737,316.644C79.846,315.484 81.145,316.86 82.391,317.751C102.815,332.351 125.644,341.878 149.301,349.711C153.354,351.053 157.26,352.838 161.372,354.229C134.186,337.67 109.514,318.215 90.04,292.562C115.009,315.151 140.506,336.816 175.303,345.1C165.618,338.25 155.774,332.977 147.49,325.491C139.069,317.88 132.944,308.591 126.937,299.195C120.86,289.691 115.635,279.776 114.76,268.065C116.349,268.066 116.792,268.78 117.088,269.561C127.703,297.571 145.877,318.678 173.094,331.87C181.315,335.854 188.971,340.998 196.941,345.513C197.991,346.108 199.212,347.036 201.346,345.881C183.257,331.202 170.08,312.961 158.789,292.762C161.425,292.359 162.065,293.997 162.838,295.086C185.731,327.335 218.18,346.367 253.793,361.097C270.186,367.877 286.981,373.613 303.294,380.625C310.896,383.893 319.207,385.473 327.071,388.182C336.061,391.279 344.45,395.704 352.885,400.116C378.59,413.563 405.334,424.651 432.528,434.774C447.285,440.267 462.36,444.131 477.712,447.252C482.492,448.223 485.77,447.52 489.162,443.09C497.558,432.127 509.923,428.637 523.131,427.776C534.559,427.03 545.073,429.967 555.299,435.184C567.18,441.246 579.362,442.69 592.751,438.248C615.735,430.623 634.327,416.3 653.662,402.6C675.931,386.82 694.788,367.884 711.709,346.743C712.125,346.223 712.614,345.732 712.908,345.146C722.663,325.689 741.772,315.066 755.841,299.686C756.281,299.206 756.867,298.839 757.435,298.506C757.681,298.363 758.056,298.442 758.387,298.42C759.839,299.386 757.696,301.524 759.717,302.339C763.361,298.911 767.418,295.757 770.677,291.924C791.248,267.727 808.888,241.843 815.246,209.948C817.267,199.808 818.545,189.51 814.831,179.362C814.61,178.756 813.377,173.667 813.663,173.037C816.246,174.249 818.293,179.917 818.997,182.133C824.115,198.236 824.225,214.259 820.07,230.798C818.391,237.483 812.283,255.229 811.818,260.104C814.642,259.992 815.941,258.084 817.152,256.526C826.733,244.195 837.603,232.895 845.722,219.385C855.33,203.4 867.926,165.439 868.302,162.567C868.941,157.688 869.656,148.637 868.824,142.322C871.14,143.309 871.211,145.251 871.52,146.92C873.04,155.133 871.643,182.109 871.607,187.33C871.554,195.028 865.748,214.32 864.467,216.448C858.236,226.804 851.953,237.129 846.234,247.912C846.731,247.563 847.316,247.295 847.711,246.855C859.721,233.497 873.473,221.705 883.904,206.933C889.684,198.749 894.211,189.806 898.633,180.849C902.984,172.037 905.771,162.624 908.058,152.872C910.334,153.543 910.046,155.139 910.008,156.504C909.72,166.954 906.835,176.929 903.048,186.459C901.09,191.388 900.595,196.543 898.714,201.447C895.148,210.744 888.922,218.303 883.901,226.649C880.084,232.993 875.253,238.47 870.423,244.026C886.901,234.374 901.056,221.655 916.421,210.593C929.479,201.191 940.221,189.809 947.865,175.588C948.32,174.741 949.001,174.016 949.869,172.837C950.96,174.604 950.414,176.094 950.019,177.301C946.469,188.152 940.32,197.005 933.377,206.483C928.194,213.558 908.105,244.56 897.998,252.648C890.853,258.367 883.199,263.424 875.843,268.87C874.584,269.802 872.838,270.367 871.991,274.049C908.516,253.465 948.046,241.704 981.851,216.398C981.858,220.564 979.746,221.919 978.182,223.376C973.796,227.46 940.199,254.092 938.605,255.727C930.885,263.647 921.678,269.635 912.67,275.929C906.33,280.358 900.214,285.119 893.57,289.267C923.646,287.429 951.559,274.808 981.708,272.982C973.69,276.868 966.01,281.053 958.373,285.334C950.656,289.66 941.139,289.562 934.427,297.102C928.69,303.547 917.121,301.46 912.268,310.997C929.26,311.161 946.62,308.073 964.076,310.05C964.395,312.483 962.101,312.801 960.873,312.773C949.48,312.513 940.807,318.559 932.179,324.773C928.552,327.385 924.093,327.571 920.114,329.066C912.056,332.093 904.541,336.451 896.354,339.488C906.77,339.789 917.233,337.215 927.671,340.977C915.05,348.243 905.008,359.466 888.798,362.311C894.734,366.538 901.221,365.073 905.717,370.408C896.329,376.06 887.713,382.15 878.043,386.143C878.227,388.467 879.791,389.041 880.85,390.029C884.479,393.413 884.269,395.193 879.594,397.2C875.825,398.818 872.525,401.623 868.049,401.614C866.683,401.611 864.756,402.523 864.657,404.134C864.213,411.309 858.69,413.983 853.623,417.117C850.8,418.863 847.969,420.597 845.212,422.294C845.417,431.199 836.388,430.521 832.228,435.533C833.992,440.182 832.914,444.378 827.75,447.017C826.108,447.856 826.294,449.453 826.083,450.922C825.299,456.364 822.931,460.746 817.469,462.705C814.847,463.646 814.046,465.809 813.452,468.03C812.003,473.446 809.183,477.731 804.093,480.311C802.616,481.06 802.158,482.481 801.422,483.783C798.882,488.275 797.338,493.912 790.404,493.528C789.303,493.467 788.937,494.732 788.437,495.586C786.922,498.171 785.319,500.709 783.888,503.34C781.532,507.673 778.761,511.013 773.19,508.198C770.875,511.721 769.453,515.311 766.887,518.186C764.205,521.191 761.763,524.073 757.01,523.942C754.3,523.868 753.262,527.297 751.19,528.881C747.506,531.698 744.44,535.518 738.916,533.477C737.432,532.929 736.51,534.27 735.883,535.515C733.451,540.34 729.013,543.128 724.928,546.25C722.736,547.924 720.335,549.133 717.619,547.198C715.735,545.856 714.5,547.093 713.321,548.302C708.809,552.928 703.082,555.61 697.38,558.331C696.33,558.832 695.13,559.713 694.148,559.547C687.425,558.41 683.024,564.144 677.426,565.189C668.712,566.817 660.387,571.699 651.033,569.328C649.286,568.885 647.746,569.604 646.36,570.609C643.108,572.969 639.154,573.048 635.468,573.976C632.917,574.619 631.678,573.102 631.31,570.872C630.49,565.906 627.593,562.621 623.038,560.289C621.806,562.198 622.556,564.061 623.054,565.94C624.949,573.101 625.763,580.35 624.454,587.705C623.799,591.39 624.771,593.703 628.264,595.825C660.551,615.437 683.512,627.973 719.249,640.211C728.191,643.273 755.925,649.109 759.047,650.859C761.445,652.202 765.592,656.539 751.697,657.24C758.223,665.24 755.945,669.974 747.014,674.591C738.948,678.76 730.114,677.343 721.475,676.886C714.213,676.502 707.6,673.933 700.919,670.485C699.927,673.637 698.908,676.239 696.791,677.915C697.48,680.809 699.599,682.057 701.264,683.593C712.258,693.733 721.287,705.427 728.894,718.256C732.136,723.723 731.601,724.37 725.363,724.874C704.916,726.526 687.771,719.808 673.645,705.068C672.112,703.469 670.695,701.958 668.16,703.884C665.531,705.882 666.772,707.673 668.061,709.422C678.69,723.842 685.162,740.213 690.605,757.081C691.572,760.078 693.115,763.957 691.618,766.046C689.565,768.914 685.846,766.164 682.839,765.613C661.84,761.769 649.297,747.118 638.104,730.716C637.124,729.279 636.933,727.145 634.713,726.705C632.39,728.138 633.775,729.935 634.238,731.557C635.927,737.48 639.072,742.86 640.549,748.894C641.465,752.64 642.416,756.346 642.153,760.196C641.606,768.187 642.203,776.101 643.323,784.003C643.885,787.965 642.088,788.816 638.35,788.185C627.101,786.286 619.982,778.621 613.101,770.597C608.63,765.382 605.169,759.497 602.243,753.288C601.498,751.705 601.091,749.834 599.056,748.702C597.324,752.085 598.304,755.448 598.264,758.641C598.082,773.092 593.064,785.752 584.494,797.176C582.729,799.529 580.961,798.447 579.431,797.032C575.606,793.496 572.568,789.336 570.169,784.708C567.74,780.022 565.287,775.348 562.804,770.591C557.948,774.139 557.565,779.745 554.72,783.907C551.38,788.794 547.988,793.378 542.615,796.548C539.918,798.139 538.419,801.88 536.582,804.777C534.186,808.558 532.387,808.807 529.635,805.167C527.181,801.923 526.401,797.888 524.898,793.744" style="fill:rgb(255,253,232);fill-rule:nonzero;"/>
    </g>
</svg>
