<?xml version="1.0" encoding="UTF-8" standalone="no"?>
<!DOCTYPE svg PUBLIC "-//W3C//DTD SVG 1.1//EN" "http://www.w3.org/Graphics/SVG/1.1/DTD/svg11.dtd">
<svg width="100%" height="100%" viewBox="0 0 128 128" version="1.1" xmlns="http://www.w3.org/2000/svg" xmlns:xlink="http://www.w3.org/1999/xlink" xml:space="preserve" xmlns:serif="http://www.serif.com/" style="fill-rule:evenodd;clip-rule:evenodd;stroke-linejoin:round;stroke-miterlimit:2;">
    <g transform="matrix(2.09867,0,0,2.92775,-16.4814,-48.2143)">
        <rect x="7.853" y="16.468" width="60.991" height="43.72" style="fill:rgb(0,0,102);"/>
    </g>
    <g transform="matrix(7.61565,0,0,7.25469,8.28826,87.2519)">
        <text x="0px" y="0px" style="font-family:'Helvetica-Bold', 'Helvetica';font-weight:700;font-size:12px;fill:rgb(156,66,33);">[  ]</text>
    </g>
    <g transform="matrix(0.136729,0,0,0.136729,-8.28703,-5.56388)">
        <path d="M524.898,793.744C522.809,783.244 523.687,773.083 524.303,762.958C524.761,755.434 525.737,747.942 526.513,740.123C524.155,741.133 512.485,762.295 504.072,768.641C499.287,772.251 477.066,781.902 473.159,781.646C469.494,781.405 471.924,774.612 473.053,770.757C476.675,758.392 479.788,746.036 484.253,734.006C485.631,730.295 487.227,726.608 487.211,721.925C483.62,724.906 445.991,749.614 434.892,751.739C433.021,752.097 430.958,751.303 428.982,751.291C425.495,751.27 425.045,749.147 425.843,746.594C430.879,730.479 449.89,692.263 449.572,687.433C442.363,695.151 375.923,683.208 374.972,679.435C373.985,675.522 378.31,673.698 381.332,672.148C408.052,658.443 433.607,642.757 458.698,626.334C474.21,616.181 492.819,607.411 501.438,591.047C505.208,583.89 504.315,580.446 502.946,576.591C465.3,598.576 363.219,545.655 358.256,543.488C352.353,540.911 295.485,512.673 249.714,493.055C246.703,491.764 272.389,484.969 272.026,483.066C271.685,481.277 180.696,463.723 186.085,462.063C193.932,459.645 226.707,441.475 223.001,441.321C210.889,440.819 195.5,440.069 106.53,427.088C125.33,418.344 192.216,402.581 188.582,402.453C175.085,401.981 83.611,361.335 68.441,355.155C70.294,353.104 181.659,363.557 178.257,361.329C168.87,355.18 117.554,276.243 114.76,268.065C116.349,268.066 263.821,373.557 374.383,413.842C389.178,419.232 462.36,444.131 477.712,447.252C482.492,448.223 485.77,447.52 489.162,443.09C497.558,432.127 509.923,428.637 523.131,427.776C534.559,427.03 545.073,429.967 555.299,435.184C567.18,441.246 579.362,442.69 592.751,438.248C615.735,430.623 635.066,417.287 653.662,402.6C781.851,301.351 813.377,173.667 813.663,173.037C815.604,173.948 821.506,223.975 814.489,260.007C845.634,242.243 869.543,147.785 868.824,142.322C871.14,143.309 884.814,226.354 861.806,258.807C886.801,239.247 945.182,178.834 949.869,172.837C946.999,197.94 904.434,291.575 903.587,295.258C935.662,290.93 936.114,291.381 965.317,283.434C965.636,285.866 904.541,336.451 896.354,339.488C910.334,343.206 936.478,340.885 959.959,342.117C959.824,341.697 828.343,439.37 832.112,439C845.127,437.721 850.009,437.637 857.918,437.162C864.169,436.787 730.724,525.523 703.047,546.937C692.023,555.466 658.249,579.028 614.317,572.138C613.085,574.046 617.433,587.769 628.264,595.825C658.575,618.371 683.512,627.973 719.249,640.211C728.191,643.273 763.228,652.677 764.106,656.146C766.252,664.618 736.131,684.362 693.207,673.608C693.896,676.503 699.599,682.057 701.264,683.593C712.258,693.733 721.287,705.427 728.894,718.256C732.136,723.723 731.601,724.37 725.363,724.874C704.916,726.526 670.695,701.958 668.16,703.884C665.531,705.882 685.162,740.213 690.605,757.081C691.572,760.078 693.115,763.957 691.618,766.046C689.565,768.914 649.297,747.118 638.104,730.716C637.124,729.279 636.933,727.145 634.713,726.705C632.39,728.138 633.775,729.935 634.238,731.557C635.927,737.48 642.203,776.101 643.323,784.003C643.885,787.965 642.088,788.816 638.35,788.185C627.101,786.286 619.982,778.621 613.101,770.597C608.63,765.382 605.169,759.497 602.243,753.288C601.498,751.705 601.091,749.834 599.056,748.702C597.324,752.085 598.304,755.448 598.264,758.641C598.082,773.092 593.064,785.752 584.494,797.176C582.729,799.529 580.961,798.447 579.431,797.032C575.606,793.496 572.568,789.336 570.169,784.708C567.74,780.022 565.287,775.348 562.804,770.591C557.948,774.139 557.565,779.745 554.72,783.907C551.38,788.794 532.387,808.807 529.635,805.167C527.181,801.923 526.401,797.888 524.898,793.744" style="fill:rgb(255,253,232);fill-rule:nonzero;"/>
    </g>
</svg>
